<?xml version="1.0" encoding="UTF-8"?>
<svg id="Katman_1" data-name="Katman 1" xmlns="http://www.w3.org/2000/svg" viewBox="0 0 523 523">
  <defs>
    <style>
      .cls-1 {
        fill: #4a44e2;
        stroke-width: 0px;
      }
    </style>
  </defs>
  <g id="_9zitVz.tif" data-name=" 9zitVz.tif">
    <path class="cls-1" d="M30.02,321.34c0-52.93-.04-105.85.01-158.79.03-23.83,4.54-46.54,16.44-67.55,14.71-25.98,36.8-42.08,65.26-50.25,28.6-8.22,57.93-11.8,87.43-14.01,28.24-2.12,56.57-2.55,84.77.07,37.9,3.53,74.93,11.07,109.12,28.79,27.66,14.33,50.92,33.58,67.01,60.74,11.5,19.4,17.57,40.52,19.61,62.77,2.45,26.69-.88,52.73-11.06,77.68-6.01,14.73-14.17,28.21-24.2,40.55-1.94,2.4-2.54,4.34-1.13,7.47,21.55,47.79,35.44,97.88,44.65,149.37,1.34,7.47,2.32,15.03,4.04,22.41.94,4.04-.73,4.76-3.97,5.14-10.51,1.28-20.97,2.84-31.48,4-11.82,1.3-23.7,2.11-35.52,3.45-3.72.43-5.21-.34-5.85-4.3-4-25.1-8.81-50.04-15.65-74.55-5.64-20.19-12.51-39.96-19.79-59.61-1.12-3.01-2.15-3.39-5.24-2.1-22.63,9.58-46.05,16.45-70.54,18.95-21.26,2.16-42.62,2.18-63.9-.03-17.65-1.82-35.04-5.14-51.2-12.93-31.42-15.13-51.05-39.46-55.39-74.38-3.39-27.3,4.77-51.87,21.77-73.41,16.89-21.4,38.95-34.64,65.29-41.37,30.43-7.79,60.04-3.61,89.43,5.14,32.61,9.72,59.07,28.82,81.89,53.5,1.42,1.54,2.74,4.33,4.76,3.87,2.33-.52,2.23-3.72,2.76-5.85,5.38-21.51,6.08-42.84-4.19-63.23-7.79-15.47-20.68-25.85-35.68-33.93-22.09-11.9-46.08-16.97-70.71-19.83-19.07-2.21-38.21-3.83-57.42-2.74-32.17,1.82-64.3,3.72-95.83,11.47-17.77,4.37-25.05,15.72-27.14,31.69-1.85,14.15-.81,28.39-.81,42.59.04,98.91,0,197.82.12,296.73,0,4.47-1.27,5.52-5.58,5.47-22.34-.21-44.69-.21-67.04,0-4.22.04-5.17-1.23-5.17-5.28.14-55.9.08-111.81.08-167.72h.03ZM271.76,296.58c6.65.33,13.24-.32,19.79-1.08,14.92-1.71,29.56-4.7,43.67-10.02,2.28-.85,3.53-1.42,1.35-3.93-6.52-7.51-13.91-14.06-21.95-19.86-17.26-12.41-36.83-18.1-57.84-18.95-15.19-.61-29.52,2.22-39.96,14.48-9.02,10.58-9.89,20.01-1.7,27.49,2.43,2.22,5.29,3.92,8.42,4.99,15.64,5.36,31.88,6.47,48.2,6.88h.01Z"/>
  </g>
</svg>